<svg width="201" height="80" viewBox="0 0 201 80" fill="none" xmlns="http://www.w3.org/2000/svg">
<g clip-path="url(#clip0_627_2521)">
<path d="M159.379 12.1865V23.503H173.479V58.9161H189.254V23.503H200.554V12.1865H159.379Z" fill="#231F20"/>
<path d="M132.713 49.2917C134.765 49.5978 139.1 49.5916 139.848 46.9576C140.715 43.9274 135.203 42.8595 133.261 42.3315C130.749 41.6474 128.497 40.8074 123.844 38.3114C120.205 36.3553 118.457 32.9051 117.568 29.821C116.923 27.5949 116.96 24.7449 117.405 23.0827C118.79 17.8686 124.866 14.1185 130.445 12.9245C133.083 12.3544 137.181 11.7904 144.124 12.7805C148.362 13.3865 151.526 14.5985 154.06 16.3146L147.873 26.4729C145.865 24.949 139.493 23.4969 135.906 23.6169C132.32 23.7428 131.631 26.101 132.201 27.175C132.95 28.5851 135.284 29.173 136.921 29.7371C138.937 30.4331 142.819 31.711 144.746 32.4552C150.125 34.5551 155.401 38.1793 155.016 45.9617C154.601 54.284 147.739 59.27 135.595 59.27C126.237 59.27 120.687 57.4881 117.175 55.1539L123.451 46.1475C125.577 47.4616 129.956 48.8837 132.713 49.2917Z" fill="#231F20"/>
<path d="M50.3625 12.1924H65.5002L77.274 45.0915L89.5592 12.1924H104.704L112.596 58.922H96.4205L92.6712 34.9272L84.3874 58.922H68.0861L60.0615 35.1372L56.4456 58.922H42.3379L50.3625 12.1924Z" fill="#231F20"/>
<path d="M19.1758 37.9333C19.1758 48.0076 24.2884 57.1159 32.5205 63.6503V55.5858V55.0759V30.151V28.7649V12.2164C24.2884 18.7506 19.1758 27.8589 19.1758 37.9333Z" fill="#F47E20"/>
<path d="M16.8188 37.9333C16.8188 27.9969 21.5387 18.9546 29.267 12.1924H14.1365H13.3288H12.047H10.3354H1.25119L1.14005 12.2884V12.6964C1.1771 13.1044 1.6439 13.6024 2.1107 13.8004V14.8925C1.91805 15.5225 1.4142 16.7165 1.06595 17.2805C0.910349 17.4066 0.754747 17.6226 0.754747 17.7846V18.0066H0.554688C0.554688 18.1626 0.628783 18.3846 0.710289 18.5106C0.747337 18.5706 0.747337 18.6966 0.673241 18.7626C0.791795 18.9846 0.947395 19.4226 0.984444 19.6746C0.828844 19.8006 0.828844 19.9866 0.984444 20.1486L1.02149 20.1787C1.14005 20.3347 1.14005 20.6166 1.02149 20.8027V20.9588L1.14005 20.9887C1.25119 21.2708 1.6439 21.7748 1.8736 21.9967C2.29594 22.0568 2.91835 22.4047 3.15546 22.7167C3.38515 22.7768 3.57782 22.9988 3.57782 23.2207C3.69635 23.2507 3.81492 23.4127 3.85197 23.5028C3.97051 23.5988 4.23725 23.8207 4.31876 23.9469C4.43733 24.1327 4.66702 24.4148 4.82261 24.5709C4.97823 24.7567 5.33389 25.1048 5.56358 25.2609C5.75623 25.2909 5.99333 25.4468 6.06743 25.6029C6.06743 25.7889 5.91184 26.0109 5.68212 26.1069C5.60805 26.1368 5.48948 26.1969 5.44502 26.2929C5.48207 26.7009 5.25238 27.3608 4.94117 27.703C4.94117 28.177 5.05971 29.0529 5.21533 29.497H5.40797C5.75623 29.5569 5.98592 29.809 5.94887 30.121C5.91184 30.4991 6.10448 31.159 6.29712 31.5071L6.45274 31.6031V32.7011L6.57128 32.8271H6.65279C6.88248 32.8872 7.0381 33.1091 6.92694 33.3311C6.77135 33.5171 6.65279 33.8952 6.69725 34.1171H6.81579C7.20851 35.0892 7.127 36.7573 6.69725 37.7292V37.8252V38.1372L6.92694 38.3292V38.8332L7.08256 38.9292C7.50489 39.1813 8.09025 39.7454 8.28289 40.1233H8.6682L8.78676 40.2494V40.5313V40.6273H8.9053V40.7173V41.2213V41.3475C9.02387 41.5034 8.97941 41.7194 8.78676 41.8453V42.3493C8.6682 42.4755 8.36441 42.6615 8.16435 42.7274V45.1454C8.31994 45.2414 8.62374 45.3676 8.78676 45.4275C8.86825 45.4574 8.9053 45.5235 8.86825 45.5836C8.83123 45.6435 8.74971 45.6435 8.67561 45.6435V45.7395V46.7415V46.8375H8.55705V46.9335V47.9356V48.0316C8.48297 48.0615 8.40146 48.1276 8.43851 48.1877C8.43851 48.2476 8.47556 48.2837 8.55705 48.2837C8.63115 48.3136 8.74971 48.3797 8.78676 48.4396V48.9436C9.06092 49.1957 9.60182 49.5737 9.91302 49.7296V50.0478C10.0316 50.4256 10.4613 50.8336 10.8837 50.9598V51.8357C10.9207 52.2437 11.0763 52.9698 11.269 53.3417C11.3875 53.4679 11.6172 53.5938 11.7728 53.6599V54.7639C12.2026 54.8539 13.0547 55.0158 13.4844 55.0459V55.1719V55.4238C13.5215 55.8018 13.7956 56.4258 14.1068 56.7739H14.8404L14.996 56.8699V57.1218C15.2701 57.56 15.9296 58.16 16.4705 58.4059V58.754V58.88H16.5891V58.976V59.8521V59.978H16.7076V60.074V60.7641L16.4705 60.9501V61.6701V61.7661H16.5891V61.856C16.7076 62.7682 17.6709 63.4583 18.8342 63.3982C18.8786 63.3982 18.9527 63.3682 18.9898 63.3682H19.4121H19.5677V63.4642H19.6863V63.5602V63.9682C20.079 64.1241 20.8125 64.3821 21.2349 64.4722C21.509 64.5321 21.9388 64.7842 22.1685 64.9762V65.0663V65.6662V65.7922H22.2796V65.8882V66.1702V66.2962H22.3982V66.3922V66.4882L22.5167 66.5783H22.9095L23.0206 66.6743V67.6763L23.1391 67.7723H23.2577V67.8683H23.3762L23.5319 67.9943V69.5003V69.5364C24.1172 70.0404 25.3176 70.8864 25.977 71.2944V71.9844L26.1326 72.0804H26.2511V72.2064H26.3698L26.4883 72.2964V72.8964C26.9921 73.1785 27.5775 73.8326 27.7331 74.3126V74.4086L27.8442 74.5046H28.037C28.4221 74.5346 28.9706 74.7865 29.2003 75.0086V76.0107L29.3188 76.1067H29.9411H30.0967V76.1965H30.1931V76.2925V76.6107V76.7067H30.3116V76.9286C30.5857 77.2767 31.2008 77.6847 31.7047 77.8107H31.8603L31.9419 77.9067H32.2901L32.4826 77.9727H32.5198V77.6246V66.2843C22.8872 59.3179 16.8188 49.2016 16.8188 37.9333Z" fill="#F47E20"/>
<path d="M40.9671 71.1204V68.9184C37.892 67.4363 35.0614 65.6663 32.5273 63.6503V66.2603C35.0986 68.1264 37.9217 69.7584 40.9671 71.1204Z" fill="#231F20"/>
<path d="M63.6627 0C50.0663 0 37.8255 4.69815 29.2676 12.1924H32.5204V12.2164C40.5448 5.8442 51.5332 1.90807 63.6627 1.90807C68.3976 1.90807 72.9545 2.50808 77.2299 3.61813V1.62006C72.9396 0.56402 68.3827 0 63.6627 0Z" fill="#231F20"/>
</g>
<defs>
<clipPath id="clip0_627_2521">
<rect width="200" height="80" fill="white" transform="translate(0.554688)"/>
</clipPath>
</defs>
</svg>
