<svg viewBox="0 0 512 512" xml:space="preserve" xmlns="http://www.w3.org/2000/svg"><path d="m53.18 90.361 3.761 33.075c.24 6.144 2.293 12.703 5.714 18.402v40.183a17.21 17.21 0 0 1-6.411 13.414c-8.072 6.492-12.702 16.158-12.702 26.516v62.711l7.82 30.001c1.638 6.285 6.763 11.227 13.191 12.156 6.667.963 13.048-2.166 16.371-8.044 2.018-3.57 2.445-7.826 1.499-11.816l-6.372-26.873v-30.011l8.13-11.723c5.087 10.022 12.013 22.061 21.045 34.614l-6.253 7.64a43.024 43.024 0 0 0-9.396 32.306c.848 7.047 6.145 12.942 13.173 13.926 8.722 1.22 16.484-4.965 17.501-13.421l.959-7.973 5.816-6.331c18.51 19.149 39.141 33.575 61.681 43.159 6.038 24.297 20.826 38.316 26.278 42.796l9.92 39.147c1.018 4.017.299 7.838-2.025 10.76-2.308 2.902-5.838 4.462-9.936 4.367l-.072-.002-45.183.044c-7.336-.138-14.228 2.916-19.128 8.534-4.02 4.609-6.053 10.624-6.053 16.739v6.014h30.712a24.609 24.609 0 0 0-2.683 11.22v6.5h87.983c17.219 0 31.178-13.959 31.178-31.178v-74.636c0-7.51 5.871-13.156 13.598-13.598l.557-.066a15.165 15.165 0 0 0 1.924-.351c42.239-10.636 69.473-45.807 69.473-89.867 0-13.57-2.915-26.472-8.148-38.114 4.972 6.96 8.899 15.027 11.209 24.401l28.063 119.691c7.303 31.146 22.692 56.579 43.336 71.613l2.905 2.116c-12.564-1.639-24.656-7.923-35.305-18.418-12.933-12.747-22.797-30.72-28.538-52.021l-12.023-43.393a6.495 6.495 0 0 0-7.996-4.525l-.006.001a6.497 6.497 0 0 0-4.526 7.996l12.012 43.348c6.329 23.483 17.379 43.488 31.953 57.854 14.995 14.778 32.652 22.591 51.064 22.591h33.89l-35.776-26.057c-17.864-13.011-31.836-36.364-38.332-64.072L390.95 261.944c-10.11-41.037-45.421-60.401-73.263-69.421l-.001.004a92.779 92.779 0 0 0-35.72-7.115l-12.881.884-51.679 8.613c-1.229.205-2.474.277-3.714.399a6.482 6.482 0 0 0-5.843 6.7v.005c.141 3.749 3.418 6.601 7.151 6.229 2.458-.245 4.912-.571 7.344-.977l48.267-8.045 11.577-.808c44.169.118 80.062 36.087 80.062 80.283 0 38.524-22.891 68.08-59.793 77.298-14.279.445-25.758 12.199-25.758 26.584v74.636c0 10.039-8.139 18.178-18.178 18.178h-73.024a11.81 11.81 0 0 1 1.566-1.886c2.274-2.227 5.29-3.43 8.458-3.349l42.05.001c15.753 0 28.431-12.765 27.921-29.016-.063-2.028-.404-4.039-.904-6.006l-18.652-73.388a52.72 52.72 0 0 0 6.282 1.276c3.888.548 7.348-2.522 7.348-6.448v-.001a6.487 6.487 0 0 0-5.585-6.425 39.375 39.375 0 0 1-7.084-1.671 39.971 39.971 0 0 1-7.183-3.249c-12.25-7.086-19.861-20.265-19.861-34.394 0-1.83.123-3.649.368-5.421 2.407-17.686 16.479-31.438 33.778-33.899a6.481 6.481 0 0 0 5.566-6.421v-.009c0-3.922-3.456-6.997-7.34-6.448-22.984 3.25-41.688 21.52-44.884 45.011a52.552 52.552 0 0 0-.489 7.188c0 9.451 2.567 18.58 7.192 26.517-29.169-8.031-55.392-24.062-78.208-47.833l5.348-5.821a81.028 81.028 0 0 0 20.368-67.447l-.138-.877a6.497 6.497 0 0 0-7.431-5.405l-.005.001a6.498 6.498 0 0 0-5.405 7.431l.138.876c3.252 20.618-2.981 41.259-17.103 56.629L108.8 299.733l-1.449 12.051c-.104.859-.611 1.657-1.408 1.997a2.426 2.426 0 0 1-3.391-1.871 29.985 29.985 0 0 1 6.478-23.069l15.87-19.386a35.246 35.246 0 0 0 6.963-30.71l-6.353-25.954-.565-2.515-2.224-1.401c-.499-.33-11.363-7.735-17.067-29.018-.881-3.287-4.182-5.316-7.521-4.657-3.698.729-5.997 4.448-5.014 8.088 5.572 20.638 15.742 31.021 20.309 34.819l5.808 23.729a22.25 22.25 0 0 1-4.395 19.384l-1.076 1.313c-14.387-20.644-22.858-39.721-26.507-48.885a6.488 6.488 0 0 0-8.055-3.763l-.025.008a6.496 6.496 0 0 0-4.019 8.566 212.105 212.105 0 0 0 2.619 6.309l-14.729 21.24v35.598l6.804 28.695a2.949 2.949 0 0 1-.565 2.551 2.962 2.962 0 0 1-2.604 1.13c-1.179-.086-2.379-1.198-2.677-2.344l-7.466-28.643v-61.104c0-6.43 3.042-12.396 8.02-16.465 7.053-5.767 11.093-14.284 11.093-23.406v-27.551c3.158 1.579 6.491 2.422 9.853 2.422h7.33c8.445 0 15.877-5.064 21.047-12.213 8.604 23.76 24.746 44.259 43.083 53.312a103.904 103.904 0 0 0 25.744 8.723c3.687.733 7.232-1.796 7.727-5.522v-.005a6.485 6.485 0 0 0-5.16-7.217 90.916 90.916 0 0 1-22.557-7.636c-19.474-9.613-36.721-36.309-41.242-63.693l3.485-31.873c7.334-5.446 18.126-14.442 22.696-21.205 11.706-17.313 9.493-37.32 9.393-38.163l-.702-5.926-5.964.194c-1.175.038-28.914 1.146-41.117 19.194-.952 1.409-4.4 6.588-7.313 11.866a27.26 27.26 0 0 0-4.241-.333H80.442c-1.753 0-3.481.172-5.167.498-3.075-5.918-7.326-12.306-8.401-13.896C54.67 24.948 26.931 23.842 25.756 23.803l-5.964-.194-.703 5.926c-.1.844-2.313 20.852 9.393 38.162 5.009 7.412 17.485 17.501 24.698 22.664zm176.078 263.59c.51.359 1.027.709 1.551 1.051l21.234 83.548a14.991 14.991 0 0 1-.148 7.916c-1.865 6.438-8.011 10.692-14.713 10.692h-41.459l-38.275.034s.914-.938 1.606-1.465c2.529-1.925 5.252-3.416 8.438-3.344l.072.001 45.183-.044c8.122.166 15.501-3.229 20.309-9.273 4.838-6.083 6.46-14.118 4.452-22.045l-11.063-43.659-1.985-1.387c-.153-.106-12.968-9.245-20.319-27.984a176.777 176.777 0 0 0 25.117 5.959zM120.042 52.143c5.538-8.19 16.9-11.431 24.161-12.694-.353 5.878-1.883 14.807-7.311 22.834-2.292 3.392-7.718 8.444-13.116 12.912-1.39-3.905-3.587-7.501-6.488-10.475a28.268 28.268 0 0 0-3.289-2.886 156.853 156.853 0 0 1 6.043-9.691zm-27.204 91.75h-7.33c-1.203 0-2.436-.295-3.664-.849 1.323-2.663 4.065-4.503 7.236-4.503 3.207 0 5.975 1.882 7.281 4.595-1.147.485-2.328.757-3.523.757zM70.151 73.824c2.772-2.855 6.427-4.429 10.291-4.429h17.275c3.85 0 7.495 1.563 10.264 4.401 2.604 2.67 4.15 6.127 4.455 9.881-.013.008-.027.019-.041.026l.044.071c.036.48.059.966.054 1.456l-4.035 36.896-.037.545c-.086 3.492-1.17 7.333-2.909 10.777a21.11 21.11 0 0 0-10.612-7.073V113.14a6.497 6.497 0 0 0-6.497-6.497h-.006a6.497 6.497 0 0 0-6.497 6.497v13.685a21.157 21.157 0 0 0-9.129 6.454c-1.716-3.415-2.748-7.152-2.848-10.52l-4.259-37.446c-.064-4.363 1.524-8.435 4.487-11.489zM56.104 50.277c2.566 3.796 5.406 8.405 7.369 12.095a28.557 28.557 0 0 0-2.649 2.397c-2.836 2.922-4.993 6.437-6.378 10.252-6.025-4.83-12.605-10.776-15.193-14.605-5.379-7.954-6.916-16.922-7.283-22.828 7.265 1.268 18.604 4.511 24.134 12.689z" fill="#42b4e6" class="fill-000000"></path><path d="M283.195 271.123h13.601a6.5 6.5 0 1 0 0-13h-13.601a6.5 6.5 0 1 0 0 13z" fill="#42b4e6" class="fill-000000"></path></svg>