<svg width="25" height="25" viewBox="0 0 25 25" fill="none" xmlns="http://www.w3.org/2000/svg">
<path d="M21.2213 10.9551C21.1461 10.9237 21.0645 10.9328 20.9944 10.9804C20.9243 11.028 20.8715 11.1102 20.8475 11.209C20.8236 11.3077 20.8306 11.4149 20.8668 11.5069C20.9031 11.5989 20.9658 11.6682 21.041 11.6996C23.3672 12.6723 24.4047 14.123 24.4047 16.4058C24.4047 18.4363 22.9934 20.0121 22.1529 20.7715C22.1131 20.8073 22.0805 20.8554 22.058 20.9114C22.0355 20.9675 22.0237 21.0299 22.0237 21.0933V24.08C21.309 23.7242 20.6706 23.1466 20.163 22.3964C20.1286 22.3461 20.0849 22.3083 20.0361 22.2865C19.9873 22.2648 19.9351 22.2599 19.8844 22.2722C19.7148 22.3152 19.5416 22.3761 19.366 22.4379C19.0624 22.5449 18.7493 22.6558 18.4523 22.6558C16.9237 22.6558 15.8535 22.2246 14.7595 21.1691C14.6958 21.1077 14.6162 21.0819 14.5381 21.0975C14.4601 21.1131 14.3899 21.1688 14.3431 21.2523C14.2963 21.3358 14.2767 21.4403 14.2886 21.5428C14.3004 21.6453 14.3429 21.7374 14.4065 21.7988C15.613 22.9629 16.785 23.4371 18.4523 23.4371C18.8279 23.4371 19.1803 23.3128 19.5208 23.1925C19.6267 23.1543 19.7321 23.1168 19.8362 23.0847C20.9487 24.6269 22.2071 24.9777 22.2618 24.9918C22.3051 25.0035 22.3497 25.0024 22.3926 24.9885C22.4355 24.9746 22.4754 24.9482 22.5094 24.9113C22.5437 24.8748 22.5713 24.8287 22.5902 24.7764C22.6092 24.7241 22.619 24.6669 22.619 24.6089V21.2972C24.1559 19.859 24.9999 18.1277 24.9999 16.4058C24.9999 13.7644 23.7993 12.0324 21.2213 10.9551Z" fill="#42B4E6"/>
<path d="M19.6428 10.5468C19.6428 4.53436 15.4654 0 9.92676 0C4.36011 0 0 4.63358 0 10.5484C0 14.0945 1.91131 16.6351 3.57142 18.1726V23.357C3.57173 23.422 3.58437 23.486 3.6082 23.5431C3.63203 23.6001 3.66631 23.6485 3.70794 23.6838C3.74957 23.7192 3.79725 23.7404 3.84667 23.7455C3.8961 23.7506 3.94572 23.7395 3.99106 23.7132C4.07797 23.6624 6.10951 22.4507 7.8476 19.9562C8.60058 20.1398 9.45236 20.3164 10.225 20.3164C15.8577 20.3164 19.6428 16.3898 19.6428 10.5468ZM10.2244 19.5351C9.44462 19.5351 8.55831 19.339 7.79403 19.1476C7.74338 19.1354 7.69119 19.1404 7.64243 19.1621C7.59367 19.1839 7.54996 19.2216 7.51546 19.2718C6.29522 21.0781 4.8613 22.2257 4.16666 22.7203V17.9687C4.16664 17.9053 4.15487 17.8429 4.13237 17.7868C4.10986 17.7307 4.0773 17.6827 4.03749 17.6468C2.46726 16.2289 0.595237 13.8476 0.595237 10.5484C0.595237 5.07108 4.69404 0.781248 9.92676 0.781248C15.1268 0.781248 19.0476 4.97967 19.0476 10.5468C19.0476 15.9234 15.5018 19.5351 10.2244 19.5351Z" fill="#42B4E6"/>
<path d="M9.82149 8.98438C9.16494 8.98438 8.63101 9.68515 8.63101 10.5469C8.63101 11.4086 9.16494 12.1094 9.82149 12.1094C10.478 12.1094 11.012 11.4086 11.012 10.5469C11.012 9.68515 10.478 8.98438 9.82149 8.98438ZM9.82149 11.3281C9.66823 11.3191 9.52351 11.2329 9.41748 11.0874C9.31146 10.9418 9.25228 10.7482 9.25228 10.5469C9.25228 10.3455 9.31146 10.1519 9.41748 10.0064C9.52351 9.86086 9.66823 9.77462 9.82149 9.76562C9.97475 9.77462 10.1195 9.86086 10.2255 10.0064C10.3315 10.1519 10.3907 10.3455 10.3907 10.5469C10.3907 10.7482 10.3315 10.9418 10.2255 11.0874C10.1195 11.2329 9.97475 11.3191 9.82149 11.3281ZM13.9881 8.98438C13.3316 8.98438 12.7977 9.68515 12.7977 10.5469C12.7977 11.4086 13.3316 12.1094 13.9881 12.1094C14.6447 12.1094 15.1786 11.4086 15.1786 10.5469C15.1786 9.68515 14.6447 8.98438 13.9881 8.98438ZM13.9881 11.3281C13.8349 11.3191 13.6902 11.2329 13.5841 11.0874C13.4781 10.9418 13.4189 10.7482 13.4189 10.5469C13.4189 10.3455 13.4781 10.1519 13.5841 10.0064C13.6902 9.86086 13.8349 9.77462 13.9881 9.76562C14.1414 9.77462 14.2861 9.86086 14.3921 10.0064C14.4982 10.1519 14.5574 10.3455 14.5574 10.5469C14.5574 10.7482 14.4982 10.9418 14.3921 11.0874C14.2861 11.2329 14.1414 11.3191 13.9881 11.3281ZM5.65483 9.05859C4.99828 9.05859 4.46436 9.75937 4.46436 10.6211C4.46436 11.4828 4.99828 12.1836 5.65483 12.1836C6.31138 12.1836 6.8453 11.4828 6.8453 10.6211C6.8453 9.75937 6.31138 9.05859 5.65483 9.05859ZM5.65483 11.4023C5.50157 11.3933 5.35686 11.3071 5.25083 11.1616C5.1448 11.016 5.08562 10.8224 5.08562 10.6211C5.08562 10.4197 5.1448 10.2261 5.25083 10.0806C5.35686 9.93508 5.50157 9.84884 5.65483 9.83984C5.80809 9.84884 5.9528 9.93508 6.05883 10.0806C6.16486 10.2261 6.22403 10.4197 6.22403 10.6211C6.22403 10.8224 6.16486 11.016 6.05883 11.1616C5.9528 11.3071 5.80809 11.3933 5.65483 11.4023Z" fill="#42B4E6"/>
</svg>
