<svg width="36" height="35" viewBox="0 0 36 35" fill="none" xmlns="http://www.w3.org/2000/svg">
<rect x="0.333252" width="35" height="35" rx="8" fill="#42B4E6"/>
<path d="M24.8333 8.5C25.3637 8.5 25.8724 8.71071 26.2475 9.08579C26.6225 9.46086 26.8333 9.96957 26.8333 10.5V24.5C26.8333 25.0304 26.6225 25.5391 26.2475 25.9142C25.8724 26.2893 25.3637 26.5 24.8333 26.5H10.8333C10.3028 26.5 9.79411 26.2893 9.41904 25.9142C9.04397 25.5391 8.83325 25.0304 8.83325 24.5V10.5C8.83325 9.96957 9.04397 9.46086 9.41904 9.08579C9.79411 8.71071 10.3028 8.5 10.8333 8.5H24.8333ZM24.3333 24V18.7C24.3333 17.8354 23.9898 17.0062 23.3784 16.3948C22.7671 15.7835 21.9379 15.44 21.0733 15.44C20.2233 15.44 19.2333 15.96 18.7533 16.74V15.63H15.9633V24H18.7533V19.07C18.7533 18.3 19.3733 17.67 20.1433 17.67C20.5146 17.67 20.8707 17.8175 21.1332 18.0801C21.3958 18.3426 21.5433 18.6987 21.5433 19.07V24H24.3333ZM12.7133 14.06C13.1588 14.06 13.5861 13.883 13.9012 13.5679C14.2163 13.2529 14.3933 12.8256 14.3933 12.38C14.3933 11.45 13.6433 10.69 12.7133 10.69C12.265 10.69 11.8352 10.8681 11.5182 11.185C11.2013 11.5019 11.0233 11.9318 11.0233 12.38C11.0233 13.31 11.7833 14.06 12.7133 14.06ZM14.1033 24V15.63H11.3333V24H14.1033Z" fill="white"/>
</svg>
