<svg width="30" height="30" viewBox="0 0 30 30" fill="none" xmlns="http://www.w3.org/2000/svg">
<path d="M8.94 5.47875L8.95875 5.4675L9.045 5.41687C9.58092 5.11364 10.1373 4.848 10.71 4.62187C11.8313 4.18125 13.35 3.75 15 3.75C16.65 3.75 18.1687 4.18125 19.2919 4.62187C19.864 4.84799 20.4197 5.11363 20.955 5.41687C20.9944 5.43937 21.0225 5.45437 21.0394 5.4675L21.0581 5.47875H21.06C21.2697 5.60638 21.5212 5.64662 21.7603 5.59085C21.9994 5.53507 22.2071 5.38771 22.3387 5.18045C22.4703 4.97319 22.5154 4.72256 22.4642 4.48243C22.413 4.2423 22.2697 4.03183 22.065 3.89625L22.0594 3.8925L22.05 3.88687L22.0162 3.86625C21.8409 3.76142 21.6627 3.66138 21.4819 3.56625C20.9935 3.30972 20.4915 3.08001 19.9781 2.87812C18.7219 2.38125 16.9594 1.875 15 1.875C13.0387 1.875 11.2781 2.38125 10.0219 2.87812C9.35987 3.13888 8.71703 3.44589 8.09812 3.79688C8.05978 3.81964 8.02165 3.84276 7.98375 3.86625L7.95 3.885L7.94063 3.8925L7.93687 3.89437C7.72677 4.0274 7.57812 4.23843 7.52362 4.48106C7.46912 4.72369 7.51323 4.97802 7.64625 5.18812C7.77927 5.39823 7.99031 5.54688 8.23293 5.60138C8.47556 5.65588 8.7299 5.61177 8.94 5.47875ZM7.5 7.5C6.50544 7.5 5.55161 7.89509 4.84835 8.59835C4.14509 9.30161 3.75 10.2554 3.75 11.25V18.75C3.75 19.7446 4.14509 20.6984 4.84835 21.4016C5.55161 22.1049 6.50544 22.5 7.5 22.5H15.9375C16.9321 22.5 17.8859 22.1049 18.5891 21.4016C19.2924 20.6984 19.6875 19.7446 19.6875 18.75V18.4913L24.8475 21.4387C24.9901 21.5202 25.1515 21.5627 25.3157 21.5622C25.4798 21.5616 25.641 21.518 25.783 21.4356C25.925 21.3532 26.0429 21.235 26.1248 21.0927C26.2068 20.9505 26.2499 20.7892 26.25 20.625V9.375C26.2499 9.21083 26.2068 9.04955 26.1248 8.90729C26.0429 8.76504 25.925 8.6468 25.783 8.56441C25.641 8.48202 25.4798 8.43836 25.3157 8.43781C25.1515 8.43725 24.9901 8.47982 24.8475 8.56125L19.6875 11.5087V11.25C19.6875 10.2554 19.2924 9.30161 18.5891 8.59835C17.8859 7.89509 16.9321 7.5 15.9375 7.5H7.5ZM19.6875 13.6687L24.375 10.9913V19.0087L19.6875 16.3313V13.6687ZM5.625 11.25C5.625 10.7527 5.82254 10.2758 6.17417 9.92418C6.52581 9.57254 7.00272 9.375 7.5 9.375H15.9375C16.4348 9.375 16.9117 9.57254 17.2633 9.92418C17.615 10.2758 17.8125 10.7527 17.8125 11.25V18.75C17.8125 19.2473 17.615 19.7242 17.2633 20.0758C16.9117 20.4275 16.4348 20.625 15.9375 20.625H7.5C7.00272 20.625 6.52581 20.4275 6.17417 20.0758C5.82254 19.7242 5.625 19.2473 5.625 18.75V11.25ZM8.94187 24.5231L8.94 24.5212C8.73025 24.3936 8.47881 24.3534 8.2397 24.4092C8.00059 24.4649 7.79291 24.6123 7.66129 24.8195C7.52966 25.0268 7.4846 25.2774 7.53578 25.5176C7.58696 25.7577 7.7303 25.9682 7.935 26.1038L7.94063 26.1075L7.95 26.1131L7.98375 26.1337C8.01 26.1525 8.04937 26.1731 8.09812 26.2031C8.1975 26.2594 8.33813 26.34 8.51813 26.4356C8.87625 26.6231 9.39 26.8725 10.0219 27.1219C11.2781 27.6169 13.0406 28.125 15 28.125C16.9613 28.125 18.7219 27.6187 19.9781 27.1219C20.6401 26.8611 21.283 26.5541 21.9019 26.2031L22.0162 26.1337L22.05 26.115L22.0594 26.1075L22.0631 26.1056C22.2732 25.9724 22.4237 25.7611 22.478 25.5183C22.5323 25.2755 22.488 25.021 22.3547 24.8109C22.2214 24.6008 22.0101 24.4523 21.7673 24.398C21.5245 24.3436 21.2701 24.388 21.06 24.5212L21.0413 24.5344L20.955 24.5831C20.4191 24.8864 19.8628 25.152 19.29 25.3781C18.1687 25.8188 16.65 26.25 15 26.25C13.35 26.25 11.8313 25.8188 10.7081 25.3781C10.136 25.1519 9.58034 24.8862 9.045 24.5831C9.01672 24.5665 8.9886 24.5496 8.96062 24.5325L8.94187 24.5231Z" fill="#42B4E6"/>
</svg>
