<svg width="30" height="30" viewBox="0 0 30 30" fill="none" xmlns="http://www.w3.org/2000/svg">
<path d="M26.1127 12.8794C26.271 11.8166 26.2179 10.7329 25.9564 9.69065C25.5996 8.26639 24.8618 6.96614 23.8221 5.9294C22.7854 4.88948 21.4851 4.15142 20.0608 3.7944C19.0185 3.53327 17.9349 3.48039 16.8721 3.63878M21.3689 12.3769C21.4563 11.7968 21.4061 11.2043 21.2224 10.6472C21.0387 10.09 20.7267 9.58383 20.3114 9.1694C19.897 8.75431 19.3907 8.4424 18.8336 8.25882C18.2765 8.07524 17.684 8.02513 17.1039 8.11253" stroke="#42B4E6" stroke-width="2" stroke-linecap="round" stroke-linejoin="round"/>
<path d="M8.98509 5.49628C9.20805 5.49639 9.42693 5.55614 9.61903 5.66933C9.81113 5.78253 9.96945 5.94504 10.0776 6.14003L11.607 8.89378C11.7056 9.07149 11.7595 9.27058 11.7638 9.47381C11.7682 9.67703 11.7229 9.87825 11.632 10.06L10.1588 13.0057C10.1588 13.0057 10.5857 15.2007 12.372 16.9869C14.1588 18.7732 16.3463 19.1932 16.3463 19.1932L19.2913 17.72C19.4732 17.629 19.6746 17.5838 19.878 17.5883C20.0813 17.5928 20.2805 17.6468 20.4582 17.7457L23.2207 19.2813C23.4154 19.3897 23.5775 19.5481 23.6903 19.7402C23.8032 19.9322 23.8627 20.151 23.8626 20.3738V23.545C23.8626 25.1594 22.3626 26.3263 20.8326 25.8094C17.6901 24.7494 12.8126 22.73 9.72009 19.6388C6.62884 16.5469 4.61009 11.6688 3.54946 8.52628C3.03321 6.99628 4.19946 5.49628 5.81446 5.49628H8.98509Z" stroke="#42B4E6" stroke-width="2" stroke-linejoin="round"/>
</svg>
