<svg width="80" height="80" viewBox="0 0 80 80" fill="none" xmlns="http://www.w3.org/2000/svg">
<path d="M13.75 25C13.75 24.31 14.31 23.75 15 23.75C15.69 23.75 16.25 24.31 16.25 25C16.25 25.69 15.69 26.25 15 26.25C14.31 26.25 13.75 25.69 13.75 25ZM65 26.25C65.69 26.25 66.25 25.69 66.25 25C66.25 24.31 65.69 23.75 65 23.75C64.31 23.75 63.75 24.31 63.75 25C63.75 25.69 64.31 26.25 65 26.25ZM15 53.75C14.31 53.75 13.75 54.31 13.75 55C13.75 55.69 14.31 56.25 15 56.25C15.69 56.25 16.25 55.69 16.25 55C16.25 54.31 15.69 53.75 15 53.75ZM63.75 55C63.75 55.69 64.31 56.25 65 56.25C65.69 56.25 66.25 55.69 66.25 55C66.25 54.31 65.69 53.75 65 53.75C64.31 53.75 63.75 54.31 63.75 55ZM40 45C39.31 45 38.75 45.56 38.75 46.25C38.75 46.94 39.31 47.5 40 47.5C40.69 47.5 41.25 46.94 41.25 46.25C41.25 45.56 40.69 45 40 45ZM40 6.25C40.69 6.25 41.25 5.69 41.25 5C41.25 4.31 40.69 3.75 40 3.75C39.31 3.75 38.75 4.31 38.75 5C38.75 5.69 39.31 6.25 40 6.25ZM20 75.9H60V74.1H20V75.9ZM75.8325 45.345C75.6925 45.68 75.365 45.9 75 45.9H70.9V64.0975H75V65.9H60.9V69.0975H70V70.9H10V69.1H19.1V65.9H5.00002V64.1H9.10002V45.9H5.00002C4.63502 45.9 4.30752 45.68 4.16752 45.3425C4.02752 45.005 4.10502 44.62 4.36252 44.36L9.10002 39.625V35C9.10002 31.7475 11.7475 29.1 15 29.1C18.2525 29.1 20.9 31.7475 20.9 35V39.1H25C25.365 39.1 25.6925 39.3175 25.8325 39.655C25.9725 39.99 25.895 40.3775 25.6375 40.635L22.1725 44.1H29.1V35.3725L24.3625 30.635C24.105 30.3775 24.0275 29.99 24.1675 29.655C24.3075 29.32 24.635 29.1 25 29.1H29.1V25C29.1 20.1825 32.26 16.135 36.6 14.6975V12.5C36.6 10.625 38.125 9.1 40 9.1C41.875 9.1 43.4 10.625 43.4 12.5V14.6975C47.74 16.135 50.9 20.185 50.9 25V29.1H55C55.365 29.1 55.6925 29.3175 55.8325 29.655C55.9725 29.99 55.8925 30.3775 55.6375 30.635L50.9 35.3725V44.1H57.8275L54.3625 40.6375C54.105 40.38 54.0275 39.9925 54.1675 39.6575C54.3075 39.32 54.6375 39.1025 55 39.1025H59.1V35C59.1 31.7475 61.7475 29.1 65 29.1C68.2525 29.1 70.9 31.7475 70.9 35V39.6275L75.6375 44.3625C75.8925 44.6225 75.9725 45.0075 75.8325 45.345ZM60.9 39.1H69.0975V35C69.0975 32.74 67.26 30.9 64.9975 30.9C62.735 30.9 60.8975 32.74 60.8975 35L60.9 39.1ZM20.9 50.9V64.0975H24.1V50.9H20.9ZM25.9 64.1H29.1V50.9H25.9V64.1ZM30.9 50.9V64.0975H34.1V50.9H30.9ZM35.9 49.1H44.1V45.375L40 41.2725L35.9 45.3725V49.1ZM35.9 50.9V64.0975H44.1V50.9H35.9ZM45.9 64.1H49.0975V50.9H45.9V64.1ZM25.9 65.9V69.0975H29.1V65.9H25.9ZM30.9 69.1H34.1V65.9H30.9V69.1ZM35.9 69.1H44.1V65.9H35.9V69.1ZM45.9 69.1H49.0975V65.9H45.9V69.1ZM50.9 69.1H54.0975V65.9H50.9V69.1ZM54.1 64.1V50.9H50.9V64.0975L54.1 64.1ZM55.9 64.1H59.0975V50.9H55.9V64.1ZM62.8275 49.1L59.6275 45.9025H45.9025V49.1H62.8275ZM38.4 14.2625C38.925 14.185 39.4525 14.1 40 14.1C40.5475 14.1 41.075 14.1825 41.6 14.2625V12.5C41.6 11.6175 40.8825 10.9 40 10.9C39.1175 10.9 38.4 11.6175 38.4 12.5V14.2625ZM30.9 25V29.1H36.6V22.5C36.6 20.625 38.125 19.1 40 19.1C41.875 19.1 43.4 20.625 43.4 22.5V29.1H49.0975V25C49.0975 19.9825 45.015 15.9 39.9975 15.9C34.9825 15.9 30.9 19.9825 30.9 25ZM41.6 29.1V22.5C41.6 21.6175 40.8825 20.9 40 20.9C39.1175 20.9 38.4 21.6175 38.4 22.5V29.1H41.6ZM27.1725 30.9L30.3725 34.1H49.6275L52.8275 30.9H50H30H27.1725ZM30.9 44.1H34.6275L39.365 39.365C39.7175 39.0125 40.285 39.0125 40.6375 39.365L45.375 44.1H49.1V35.9H30.9V44.1ZM20.3725 45.9L17.1725 49.0975H34.1V45.9H20.3725ZM10.9 35V39.1H19.1V35C19.1 32.74 17.26 30.9 15 30.9C12.74 30.9 10.9 32.74 10.9 35ZM7.17252 44.1H19.6275L22.8275 40.9H10.3725L7.17252 44.1ZM19.1 64.1V50.9H15C14.635 50.9 14.3075 50.68 14.1675 50.3425C14.0275 50.005 14.105 49.62 14.3625 49.36L17.825 45.8975H10.9V64.095H19.1V64.1ZM20.9 69.1H24.1V65.9H20.9V69.1ZM59.1 65.9H55.9V69.0975H59.0975L59.1 65.9ZM69.1 45.9H62.1725L65.6375 49.3625C65.895 49.6225 65.9725 50.0075 65.8325 50.345C65.6925 50.6825 65.365 50.9 65 50.9H60.9V64.0975H69.0975L69.1 45.9ZM72.8275 44.1L69.6275 40.9H57.175L60.375 44.1H72.8275Z" fill="#42B4E6" stroke="#42B4E6" stroke-width="0.00154"/>
<path d="M80 0H0V80H80V0Z" stroke="#42B4E6" stroke-width="0.00154"/>
</svg>
