<svg width="35" height="35" viewBox="0 0 35 35" fill="none" xmlns="http://www.w3.org/2000/svg">
<rect width="35" height="35" rx="8" fill="#42B4E6"/>
<g clip-path="url(#clip0_602_209)">
<path d="M10.3571 8.75C8.78125 8.75 7.5 9.87109 7.5 11.25V23.75C7.5 25.1289 8.78125 26.25 10.3571 26.25H24.6429C26.2188 26.25 27.5 25.1289 27.5 23.75V11.25C27.5 9.87109 26.2188 8.75 24.6429 8.75H10.3571ZM23.6205 12.0312L18.9866 16.6641L24.4375 22.9688H20.1696L16.8304 19.1445L13.0045 22.9688H10.8839L15.8393 18.0117L10.6116 12.0312H14.9866L18.0089 15.5273L21.5 12.0312H23.6205ZM21.933 21.8594L14.3482 13.082H13.0848L20.7545 21.8594H21.9286H21.933Z" fill="white"/>
</g>
<defs>
<clipPath id="clip0_602_209">
<rect width="20" height="20" fill="white" transform="translate(7.5 7.5)"/>
</clipPath>
</defs>
</svg>
