<svg width="35" height="35" viewBox="0 0 35 35" fill="none" xmlns="http://www.w3.org/2000/svg">
<rect width="35" height="35" rx="8" fill="#42B4E6"/>
<path d="M15.5 20.5L20.69 17.5L15.5 14.5V20.5ZM27.06 12.67C27.19 13.14 27.28 13.77 27.34 14.57C27.41 15.37 27.44 16.06 27.44 16.66L27.5 17.5C27.5 19.69 27.34 21.3 27.06 22.33C26.81 23.23 26.23 23.81 25.33 24.06C24.86 24.19 24 24.28 22.68 24.34C21.38 24.41 20.19 24.44 19.09 24.44L17.5 24.5C13.31 24.5 10.7 24.34 9.67 24.06C8.77 23.81 8.19 23.23 7.94 22.33C7.81 21.86 7.72 21.23 7.66 20.43C7.59 19.63 7.56 18.94 7.56 18.34L7.5 17.5C7.5 15.31 7.66 13.7 7.94 12.67C8.19 11.77 8.77 11.19 9.67 10.94C10.14 10.81 11 10.72 12.32 10.66C13.62 10.59 14.81 10.56 15.91 10.56L17.5 10.5C21.69 10.5 24.3 10.66 25.33 10.94C26.23 11.19 26.81 11.77 27.06 12.67Z" fill="white"/>
</svg>
